<svg width="38" height="38" viewBox="0 0 38 38" fill="none" xmlns="http://www.w3.org/2000/svg">
<g clip-path="url(#clip0_1_4)">
<path fill-rule="evenodd" clip-rule="evenodd" d="M14.25 7.91667C14.25 7.07681 14.5836 6.27136 15.1775 5.6775C15.7714 5.08363 16.5768 4.75 17.4167 4.75H20.5833C21.4232 4.75 22.2286 5.08363 22.8225 5.6775C23.4164 6.27136 23.75 7.07681 23.75 7.91667V14.25H30.0833C30.9232 14.25 31.7286 14.5836 32.3225 15.1775C32.9164 15.7714 33.25 16.5768 33.25 17.4167V20.5833C33.25 21.4232 32.9164 22.2286 32.3225 22.8225C31.7286 23.4164 30.9232 23.75 30.0833 23.75H23.75V30.0833C23.75 30.9232 23.4164 31.7286 22.8225 32.3225C22.2286 32.9164 21.4232 33.25 20.5833 33.25H17.4167C16.5768 33.25 15.7714 32.9164 15.1775 32.3225C14.5836 31.7286 14.25 30.9232 14.25 30.0833V23.75H7.91667C7.07681 23.75 6.27136 23.4164 5.6775 22.8225C5.08363 22.2286 4.75 21.4232 4.75 20.5833V17.4167C4.75 16.5768 5.08363 15.7714 5.6775 15.1775C6.27136 14.5836 7.07681 14.25 7.91667 14.25H14.25V7.91667Z" fill="#309A1B"/>
</g>
<defs>
<clipPath id="clip0_1_4">
<rect width="38" height="38" fill="white"/>
</clipPath>
</defs>
</svg>
